<svg id="svg" version="1.1" xmlns="http://www.w3.org/2000/svg" xmlns:xlink="http://www.w3.org/1999/xlink" width="400" height="380.44009779951097" viewBox="0, 40, 400,380.44009779951097"><g id="svgg"><path id="path0" d="M137.203 41.508 C 129.996 42.371,121.866 43.476,120.457 43.784 C 109.707 46.139,102.949 48.200,95.909 51.272 C 14.423 86.830,2.623 196.448,74.440 250.703 C 79.245 254.332,79.633 254.603,82.278 256.163 C 86.709 258.777,87.152 258.515,84.167 255.047 C 79.426 249.539,70.917 236.146,68.900 231.018 C 68.612 230.285,67.899 228.720,67.315 227.539 C 64.674 222.198,61.293 209.920,60.269 201.951 C 54.264 155.238,86.939 108.344,130.162 101.643 C 136.393 100.677,133.844 100.808,186.489 98.761 C 194.339 98.456,205.128 98.036,210.466 97.829 C 215.804 97.621,221.970 97.355,224.167 97.237 C 226.365 97.119,232.445 96.861,237.678 96.662 C 242.912 96.464,250.533 96.127,254.615 95.913 C 258.696 95.699,267.602 95.273,274.405 94.965 C 296.174 93.982,303.470 93.584,303.831 93.361 C 304.153 93.162,306.763 89.223,312.611 80.114 C 313.820 78.230,316.201 74.548,317.901 71.931 C 321.500 66.392,328.089 56.149,332.998 48.462 C 334.892 45.496,336.441 42.903,336.441 42.699 C 336.441 41.942,324.263 41.830,185.728 41.314 C 157.987 41.210,139.060 41.286,137.203 41.508 " stroke="none" fill="#05a3e1" fill-rule="evenodd"></path><path id="path1" d="M316.461 126.955 C 309.650 127.606,296.515 128.756,260.418 131.862 C 254.295 132.388,244.362 133.248,238.344 133.771 C 232.326 134.294,222.350 135.153,216.175 135.679 C 210.000 136.206,202.978 136.811,200.571 137.025 C 198.164 137.238,193.111 137.667,189.343 137.977 C 173.287 139.297,170.402 139.616,169.934 140.120 C 169.674 140.399,160.684 156.470,149.955 175.833 C 139.227 195.195,129.678 212.407,128.737 214.082 C 127.795 215.756,126.621 217.856,126.127 218.748 C 125.633 219.640,124.826 221.096,124.334 221.983 C 123.841 222.871,122.799 224.766,122.018 226.196 C 121.236 227.625,119.389 230.965,117.912 233.617 C 116.436 236.269,114.823 239.169,114.329 240.061 C 113.835 240.953,113.027 242.409,112.534 243.296 C 112.040 244.184,110.899 246.280,109.997 247.954 C 109.095 249.629,108.040 251.454,107.651 252.009 C 107.263 252.565,106.946 253.119,106.946 253.241 C 106.946 253.363,106.155 254.878,105.189 256.608 C 104.222 258.337,103.027 260.482,102.532 261.374 C 102.037 262.266,101.204 263.766,100.681 264.708 C 100.158 265.650,99.302 267.192,98.778 268.134 C 98.255 269.076,97.399 270.617,96.875 271.559 C 96.352 272.501,95.469 274.083,94.914 275.075 C 94.358 276.067,93.493 277.650,92.991 278.592 C 92.490 279.534,91.581 281.161,90.972 282.207 C 90.364 283.254,89.515 284.795,89.086 285.633 C 88.657 286.470,88.142 287.412,87.942 287.726 C 87.741 288.040,86.349 290.523,84.848 293.245 C 83.347 295.966,81.710 298.920,81.212 299.810 C 80.713 300.699,79.873 302.196,79.345 303.136 C 78.001 305.530,76.880 307.582,74.872 311.323 C 73.917 313.102,72.749 315.255,72.276 316.107 C 71.804 316.959,71.512 317.905,71.629 318.209 C 71.949 319.043,82.785 325.079,93.032 330.132 C 102.730 334.913,106.322 336.405,121.218 341.838 C 127.281 344.050,140.597 347.594,149.382 349.334 C 185.344 356.457,221.255 353.046,253.092 339.484 C 256.127 338.191,259.242 336.896,260.013 336.607 C 263.371 335.349,278.305 326.742,284.491 322.500 C 284.910 322.212,286.194 321.354,287.345 320.591 C 298.473 313.219,319.797 292.601,327.601 281.668 C 332.619 274.637,334.878 270.896,333.682 271.593 C 332.773 272.123,329.780 274.166,329.591 274.385 C 329.169 274.873,321.687 280.441,320.266 281.324 C 319.429 281.844,317.802 282.792,316.651 283.431 C 315.500 284.070,313.273 285.324,311.703 286.219 C 310.133 287.113,307.821 288.405,306.565 289.091 C 304.334 290.309,294.750 294.660,290.961 296.175 C 288.040 297.342,272.578 302.066,270.219 302.512 C 269.068 302.729,266.070 303.359,263.559 303.911 C 246.499 307.659,220.561 309.351,202.035 307.925 C 177.791 306.058,166.080 304.252,147.479 299.512 C 139.837 297.564,139.935 297.772,143.509 291.056 C 143.703 290.690,144.021 290.090,144.214 289.724 C 144.407 289.358,145.177 287.731,145.926 286.108 C 146.675 284.486,147.901 281.832,148.650 280.209 C 149.399 278.587,150.170 276.960,150.363 276.594 C 150.556 276.227,150.871 275.628,151.063 275.262 C 151.255 274.895,152.132 273.054,153.011 271.170 C 153.890 269.286,154.876 267.231,155.202 266.603 C 155.529 265.975,155.918 265.205,156.068 264.891 C 156.218 264.577,157.472 261.962,158.855 259.080 C 160.239 256.199,161.370 253.767,161.370 253.676 C 161.370 253.586,162.632 250.891,164.175 247.688 C 165.717 244.485,167.619 240.495,168.401 238.820 C 169.183 237.146,170.647 234.063,171.655 231.970 C 173.927 227.247,177.756 219.203,179.536 215.414 C 180.273 213.844,181.730 210.761,182.773 208.563 C 183.817 206.365,185.358 203.111,186.197 201.332 C 190.967 191.220,192.277 188.578,192.633 188.359 C 192.850 188.224,199.563 188.003,207.551 187.867 C 215.539 187.731,224.986 187.533,228.544 187.428 C 232.103 187.322,246.403 187.069,260.324 186.864 C 291.125 186.412,298.054 186.183,298.608 185.597 C 299.021 185.159,300.187 182.556,308.268 164.034 C 310.597 158.696,312.922 153.441,313.435 152.355 C 313.948 151.269,314.367 150.270,314.367 150.134 C 314.367 149.998,314.870 148.832,315.485 147.541 C 316.100 146.251,317.305 143.568,318.163 141.579 C 319.020 139.591,320.144 137.105,320.660 136.055 C 321.176 135.005,321.598 134.006,321.598 133.836 C 321.598 133.665,322.206 132.314,322.949 130.834 C 325.278 126.195,325.158 126.123,316.461 126.955 " stroke="none" fill="white" fill-rule="evenodd"></path><path id="path2" d="M358.947 120.231 C 358.626 120.432,358.007 122.951,357.335 126.787 C 354.817 141.167,351.510 154.131,347.986 163.434 C 347.266 165.334,346.164 168.250,345.537 169.914 C 328.577 214.932,292.982 237.677,243.315 235.232 C 231.233 234.637,229.268 234.401,216.187 231.970 C 208.537 230.549,208.947 230.457,207.335 233.968 C 205.125 238.784,201.338 246.962,199.713 250.428 C 197.045 256.120,196.385 257.604,196.376 257.920 C 196.371 258.091,196.033 258.658,195.623 259.182 C 195.214 259.705,194.875 260.364,194.870 260.646 C 194.866 260.928,194.162 262.641,193.307 264.452 C 186.377 279.130,186.524 277.646,191.887 278.821 C 202.625 281.172,205.294 281.701,207.992 282.013 C 209.667 282.206,213.178 282.644,215.794 282.986 C 222.038 283.802,240.378 284.156,246.051 283.570 C 248.354 283.332,252.036 282.968,254.234 282.761 C 269.003 281.371,289.402 275.362,303.520 268.244 C 312.937 263.497,317.447 260.526,327.550 252.413 C 332.562 248.389,346.337 233.154,346.337 231.636 C 346.337 231.526,347.082 230.357,347.994 229.038 C 348.905 227.720,350.165 225.699,350.793 224.548 C 351.421 223.397,352.398 221.634,352.964 220.630 C 362.786 203.205,367.535 174.448,364.826 148.811 C 363.526 136.503,360.038 119.549,358.947 120.231 " stroke="none" fill="#05a3e1" fill-rule="evenodd"></path><path id="path3" d="M0.000 190.295 L 0.000 380.590 200.000 380.590 L 400.000 380.590 400.000 190.295 L 400.000 0.000 200.000 0.000 L 0.000 0.000 0.000 190.295 M276.499 41.684 C 324.643 41.897,336.441 42.097,336.441 42.699 C 336.441 42.903,334.892 45.496,332.998 48.462 C 328.089 56.149,321.500 66.392,317.901 71.931 C 316.201 74.548,313.820 78.230,312.611 80.114 C 306.763 89.223,304.153 93.162,303.831 93.361 C 303.470 93.584,296.174 93.982,274.405 94.965 C 267.602 95.273,258.696 95.699,254.615 95.913 C 250.533 96.127,242.912 96.464,237.678 96.662 C 232.445 96.861,226.365 97.119,224.167 97.237 C 221.970 97.355,215.804 97.621,210.466 97.829 C 205.128 98.036,194.339 98.456,186.489 98.761 C 133.844 100.808,136.393 100.677,130.162 101.643 C 86.939 108.344,54.264 155.238,60.269 201.951 C 61.293 209.920,64.674 222.198,67.315 227.539 C 67.899 228.720,68.612 230.285,68.900 231.018 C 70.917 236.146,79.426 249.539,84.167 255.047 C 87.152 258.515,86.709 258.777,82.278 256.163 C 79.633 254.603,79.245 254.332,74.440 250.703 C 2.623 196.448,14.423 86.830,95.909 51.272 C 102.949 48.200,109.707 46.139,120.457 43.784 C 121.866 43.476,129.996 42.371,137.203 41.508 C 140.135 41.157,164.560 41.188,276.499 41.684 M363.215 137.012 C 368.424 168.106,364.492 200.178,352.964 220.630 C 352.398 221.634,351.421 223.397,350.793 224.548 C 350.165 225.699,348.905 227.720,347.994 229.038 C 347.082 230.357,346.337 231.526,346.337 231.636 C 346.337 233.154,332.562 248.389,327.550 252.413 C 317.447 260.526,312.937 263.497,303.520 268.244 C 289.402 275.362,269.003 281.371,254.234 282.761 C 252.036 282.968,248.354 283.332,246.051 283.570 C 240.378 284.156,222.038 283.802,215.794 282.986 C 213.178 282.644,209.667 282.206,207.992 282.013 C 206.318 281.819,202.636 281.159,199.810 280.546 C 185.760 277.496,186.989 278.209,188.799 274.163 C 189.997 271.486,190.605 270.176,193.307 264.452 C 194.162 262.641,194.866 260.928,194.870 260.646 C 194.875 260.364,195.214 259.705,195.623 259.182 C 196.033 258.658,196.371 258.091,196.376 257.920 C 196.385 257.604,197.045 256.120,199.713 250.428 C 201.338 246.962,205.125 238.784,207.335 233.968 C 208.947 230.457,208.537 230.549,216.187 231.970 C 229.268 234.401,231.233 234.637,243.315 235.232 C 276.624 236.871,303.538 227.496,322.145 207.772 C 331.239 198.132,340.635 182.925,345.537 169.914 C 346.164 168.250,347.266 165.334,347.986 163.434 C 351.510 154.131,354.817 141.167,357.335 126.787 C 358.007 122.951,358.626 120.432,358.947 120.231 C 359.603 119.821,361.748 128.257,363.215 137.012 M324.186 127.344 C 324.249 127.783,323.692 129.353,322.949 130.834 C 322.206 132.314,321.598 133.665,321.598 133.836 C 321.598 134.006,321.176 135.005,320.660 136.055 C 320.144 137.105,319.020 139.591,318.163 141.579 C 317.305 143.568,316.100 146.251,315.485 147.541 C 314.870 148.832,314.367 149.998,314.367 150.134 C 314.367 150.270,313.948 151.269,313.435 152.355 C 312.922 153.441,310.597 158.696,308.268 164.034 C 300.187 182.556,299.021 185.159,298.608 185.597 C 298.054 186.183,291.125 186.412,260.324 186.864 C 246.403 187.069,232.103 187.322,228.544 187.428 C 224.986 187.533,215.539 187.731,207.551 187.867 C 199.563 188.003,192.850 188.224,192.633 188.359 C 192.277 188.578,190.967 191.220,186.197 201.332 C 185.358 203.111,183.817 206.365,182.773 208.563 C 181.730 210.761,180.273 213.844,179.536 215.414 C 177.756 219.203,173.927 227.247,171.655 231.970 C 170.647 234.063,169.183 237.146,168.401 238.820 C 167.619 240.495,165.717 244.485,164.175 247.688 C 162.632 250.891,161.370 253.586,161.370 253.676 C 161.370 253.767,160.239 256.199,158.855 259.080 C 157.472 261.962,156.218 264.577,156.068 264.891 C 155.918 265.205,155.529 265.975,155.202 266.603 C 154.876 267.231,153.890 269.286,153.011 271.170 C 152.132 273.054,151.255 274.895,151.063 275.262 C 150.871 275.628,150.556 276.227,150.363 276.594 C 150.170 276.960,149.399 278.587,148.650 280.209 C 147.901 281.832,146.675 284.486,145.926 286.108 C 145.177 287.731,144.407 289.358,144.214 289.724 C 144.021 290.090,143.703 290.690,143.509 291.056 C 139.935 297.772,139.837 297.564,147.479 299.512 C 166.080 304.252,177.791 306.058,202.035 307.925 C 220.561 309.351,246.499 307.659,263.559 303.911 C 266.070 303.359,269.068 302.729,270.219 302.512 C 272.578 302.066,288.040 297.342,290.961 296.175 C 294.750 294.660,304.334 290.309,306.565 289.091 C 307.821 288.405,310.133 287.113,311.703 286.219 C 313.273 285.324,315.500 284.070,316.651 283.431 C 317.802 282.792,319.429 281.844,320.266 281.324 C 321.687 280.441,329.169 274.873,329.591 274.385 C 329.780 274.166,332.773 272.123,333.682 271.593 C 334.878 270.896,332.619 274.637,327.601 281.668 C 319.797 292.601,298.473 313.219,287.345 320.591 C 286.194 321.354,284.910 322.212,284.491 322.500 C 278.305 326.742,263.371 335.349,260.013 336.607 C 259.242 336.896,256.127 338.191,253.092 339.484 C 221.255 353.046,185.344 356.457,149.382 349.334 C 140.597 347.594,127.281 344.050,121.218 341.838 C 106.322 336.405,102.730 334.913,93.032 330.132 C 82.785 325.079,71.949 319.043,71.629 318.209 C 71.512 317.905,71.804 316.959,72.276 316.107 C 72.749 315.255,73.917 313.102,74.872 311.323 C 76.880 307.582,78.001 305.530,79.345 303.136 C 79.873 302.196,80.713 300.699,81.212 299.810 C 81.710 298.920,83.347 295.966,84.848 293.245 C 86.349 290.523,87.741 288.040,87.942 287.726 C 88.142 287.412,88.657 286.470,89.086 285.633 C 89.515 284.795,90.364 283.254,90.972 282.207 C 91.581 281.161,92.490 279.534,92.991 278.592 C 93.493 277.650,94.358 276.067,94.914 275.075 C 95.469 274.083,96.352 272.501,96.875 271.559 C 97.399 270.617,98.255 269.076,98.778 268.134 C 99.302 267.192,100.158 265.650,100.681 264.708 C 101.204 263.766,102.037 262.266,102.532 261.374 C 103.027 260.482,104.222 258.337,105.189 256.608 C 106.155 254.878,106.946 253.363,106.946 253.241 C 106.946 253.119,107.263 252.565,107.651 252.009 C 108.040 251.454,109.095 249.629,109.997 247.954 C 110.899 246.280,112.040 244.184,112.534 243.296 C 113.027 242.409,113.835 240.953,114.329 240.061 C 114.823 239.169,116.436 236.269,117.912 233.617 C 119.389 230.965,121.236 227.625,122.018 226.196 C 122.799 224.766,123.841 222.871,124.334 221.983 C 124.826 221.096,125.633 219.640,126.127 218.748 C 126.621 217.856,127.795 215.756,128.737 214.082 C 129.678 212.407,139.227 195.195,149.955 175.833 C 160.684 156.470,169.674 140.399,169.934 140.120 C 170.402 139.616,173.287 139.297,189.343 137.977 C 193.111 137.667,198.164 137.238,200.571 137.025 C 202.978 136.811,210.000 136.206,216.175 135.679 C 222.350 135.153,232.326 134.294,238.344 133.771 C 244.362 133.248,254.295 132.388,260.418 131.862 C 296.515 128.756,309.650 127.606,316.461 126.955 C 323.356 126.296,324.041 126.330,324.186 127.344 " stroke="none" fill="#044B94" fill-rule="evenodd" fill-opacity="0"></path></g></svg>